<svg width="25" height="24" viewBox="0 0 25 24" fill="none" xmlns="http://www.w3.org/2000/svg">
<path d="M12.5 0C10.9241 0 9.36371 0.310389 7.9078 0.913446C6.45189 1.5165 5.12902 2.40042 4.01472 3.51472C1.76428 5.76515 0.5 8.8174 0.5 12C0.5 17.304 3.944 21.804 8.708 23.4C9.308 23.496 9.5 23.124 9.5 22.8V20.772C6.176 21.492 5.468 19.164 5.468 19.164C4.916 17.772 4.136 17.4 4.136 17.4C3.044 16.656 4.22 16.68 4.22 16.68C5.42 16.764 6.056 17.916 6.056 17.916C7.1 19.74 8.864 19.2 9.548 18.912C9.656 18.132 9.968 17.604 10.304 17.304C7.64 17.004 4.844 15.972 4.844 11.4C4.844 10.068 5.3 9 6.08 8.148C5.96 7.848 5.54 6.6 6.2 4.98C6.2 4.98 7.208 4.656 9.5 6.204C10.448 5.94 11.48 5.808 12.5 5.808C13.52 5.808 14.552 5.94 15.5 6.204C17.792 4.656 18.8 4.98 18.8 4.98C19.46 6.6 19.04 7.848 18.92 8.148C19.7 9 20.156 10.068 20.156 11.4C20.156 15.984 17.348 16.992 14.672 17.292C15.104 17.664 15.5 18.396 15.5 19.512V22.8C15.5 23.124 15.692 23.508 16.304 23.4C21.068 21.792 24.5 17.304 24.5 12C24.5 10.4241 24.1896 8.8637 23.5866 7.4078C22.9835 5.95189 22.0996 4.62902 20.9853 3.51472C19.871 2.40042 18.5481 1.5165 17.0922 0.913446C15.6363 0.310389 14.0759 0 12.5 0Z" fill="url(#paint0_linear_343_15)"/>
<defs>
<linearGradient id="paint0_linear_343_15" x1="0.5" y1="0" x2="24.5" y2="4.71476e-07" gradientUnits="userSpaceOnUse">
<stop stop-color="#4848FC"/>
<stop offset="1" stop-color="#FE877A"/>
</linearGradient>
</defs>
</svg>
