<svg width="32" height="32" viewBox="0 0 32 32" fill="none" xmlns="http://www.w3.org/2000/svg">
<mask id="mask0_458_197" style="mask-type:alpha" maskUnits="userSpaceOnUse" x="0" y="0" width="32" height="32">
<rect width="32" height="32" rx="16" fill="#D9D9D9"/>
</mask>
<g mask="url(#mask0_458_197)">
<path d="M-8 0H53V32H-8" fill="#B31942"/>
<path d="M-8 3.69238H53ZM53 8.61546H-8ZM-8 13.5385H53ZM53 18.4616H-8ZM-8 23.3847H53ZM53 28.3078H-8Z" fill="black"/>
<path d="M-8 3.69238H53M53 8.61546H-8M-8 13.5385H53M53 18.4616H-8M-8 23.3847H53M53 28.3078H-8" stroke="white" stroke-width="2.3"/>
<path d="M-8 0H16.4V17.2308H-8" fill="#0A3161"/>
<path d="M0.132865 2.46167L0.713511 4.24286L-0.806641 3.14202H1.07237L-0.447781 4.24286L0.132865 2.46167Z" fill="white"/>
<path d="M0.132865 5.90771L0.713511 7.6889L-0.806641 6.58807H1.07237L-0.447781 7.6889L0.132865 5.90771Z" fill="white"/>
<path d="M0.132865 9.354L0.713511 11.1352L-0.806641 10.0344H1.07237L-0.447781 11.1352L0.132865 9.354Z" fill="white"/>
<path d="M0.132865 12.8L0.713511 14.5812L-0.806641 13.4804H1.07237L-0.447781 14.5812L0.132865 12.8Z" fill="white"/>
<path d="M2.16704 0.738525L2.74769 2.51971L1.22754 1.41888H3.10655L1.5864 2.51971L2.16704 0.738525Z" fill="white"/>
<path d="M2.16704 4.18457L2.74769 5.96576L1.22754 4.86492H3.10655L1.5864 5.96576L2.16704 4.18457Z" fill="white"/>
<path d="M2.16704 7.63086L2.74769 9.41205L1.22754 8.31121H3.10655L1.5864 9.41205L2.16704 7.63086Z" fill="white"/>
<path d="M2.16704 11.0769L2.74769 12.8581L1.22754 11.7573H3.10655L1.5864 12.8581L2.16704 11.0769Z" fill="white"/>
<path d="M2.16704 14.5232L2.74769 16.3044L1.22754 15.2035H3.10655L1.5864 16.3044L2.16704 14.5232Z" fill="white"/>
<path d="M4.20025 2.46167L4.78089 4.24286L3.26074 3.14202H5.13975L3.6196 4.24286L4.20025 2.46167Z" fill="white"/>
<path d="M4.20025 5.90771L4.78089 7.6889L3.26074 6.58807H5.13975L3.6196 7.6889L4.20025 5.90771Z" fill="white"/>
<path d="M4.20025 9.354L4.78089 11.1352L3.26074 10.0344H5.13975L3.6196 11.1352L4.20025 9.354Z" fill="white"/>
<path d="M4.20025 12.8L4.78089 14.5812L3.26074 13.4804H5.13975L3.6196 14.5812L4.20025 12.8Z" fill="white"/>
<path d="M6.23345 0.738525L6.8141 2.51971L5.29395 1.41888H7.17296L5.6528 2.51971L6.23345 0.738525Z" fill="white"/>
<path d="M6.23345 4.18457L6.8141 5.96576L5.29395 4.86492H7.17296L5.6528 5.96576L6.23345 4.18457Z" fill="white"/>
<path d="M6.23345 7.63086L6.8141 9.41205L5.29395 8.31121H7.17296L5.6528 9.41205L6.23345 7.63086Z" fill="white"/>
<path d="M6.23345 11.0769L6.8141 12.8581L5.29395 11.7573H7.17296L5.6528 12.8581L6.23345 11.0769Z" fill="white"/>
<path d="M6.23345 14.5232L6.8141 16.3044L5.29395 15.2035H7.17296L5.6528 16.3044L6.23345 14.5232Z" fill="white"/>
<path d="M8.26665 2.46167L8.8473 4.24286L7.32715 3.14202H9.20616L7.68601 4.24286L8.26665 2.46167Z" fill="white"/>
<path d="M8.26665 5.90771L8.8473 7.6889L7.32715 6.58807H9.20616L7.68601 7.6889L8.26665 5.90771Z" fill="white"/>
<path d="M8.26665 9.354L8.8473 11.1352L7.32715 10.0344H9.20616L7.68601 11.1352L8.26665 9.354Z" fill="white"/>
<path d="M8.26665 12.8L8.8473 14.5812L7.32715 13.4804H9.20616L7.68601 14.5812L8.26665 12.8Z" fill="white"/>
<path d="M10.2999 0.738525L10.8805 2.51971L9.36035 1.41888H11.2394L9.71921 2.51971L10.2999 0.738525Z" fill="white"/>
<path d="M10.2999 4.18457L10.8805 5.96576L9.36035 4.86492H11.2394L9.71921 5.96576L10.2999 4.18457Z" fill="white"/>
<path d="M10.2999 7.63086L10.8805 9.41205L9.36035 8.31121H11.2394L9.71921 9.41205L10.2999 7.63086Z" fill="white"/>
<path d="M10.2999 11.0769L10.8805 12.8581L9.36035 11.7573H11.2394L9.71921 12.8581L10.2999 11.0769Z" fill="white"/>
<path d="M10.2999 14.5232L10.8805 16.3044L9.36035 15.2035H11.2394L9.71921 16.3044L10.2999 14.5232Z" fill="white"/>
<path d="M12.3331 2.46167L12.9137 4.24286L11.3936 3.14202H13.2726L11.7524 4.24286L12.3331 2.46167Z" fill="white"/>
<path d="M12.3331 5.90771L12.9137 7.6889L11.3936 6.58807H13.2726L11.7524 7.6889L12.3331 5.90771Z" fill="white"/>
<path d="M12.3331 9.354L12.9137 11.1352L11.3936 10.0344H13.2726L11.7524 11.1352L12.3331 9.354Z" fill="white"/>
<path d="M12.3331 12.8L12.9137 14.5812L11.3936 13.4804H13.2726L11.7524 14.5812L12.3331 12.8Z" fill="white"/>
<path d="M14.3663 0.738525L14.9469 2.51971L13.4268 1.41888H15.3058L13.7856 2.51971L14.3663 0.738525Z" fill="white"/>
<path d="M14.3663 4.18457L14.9469 5.96576L13.4268 4.86492H15.3058L13.7856 5.96576L14.3663 4.18457Z" fill="white"/>
<path d="M14.3663 7.63086L14.9469 9.41205L13.4268 8.31121H15.3058L13.7856 9.41205L14.3663 7.63086Z" fill="white"/>
<path d="M14.3663 11.0769L14.9469 12.8581L13.4268 11.7573H15.3058L13.7856 12.8581L14.3663 11.0769Z" fill="white"/>
<path d="M14.3663 14.5232L14.9469 16.3044L13.4268 15.2035H15.3058L13.7856 16.3044L14.3663 14.5232Z" fill="white"/>
</g>
</svg>
